<svg viewBox="0 0 800 500" xmlns="http://www.w3.org/2000/svg">
  <!-- F -->
  <g transform="translate(50, 50)">
    <path d="M 0 0 Q 60 0 60 60 L 60 80 L 0 80 L 0 200 L 80 200 L 80 220 L 0 220 L 0 400 L -20 400 L -20 0 Q -20 -20 0 -20 L 100 -20 L 100 0 Z" fill="#FF6B57"/>
    <rect x="0" y="80" width="60" height="20" fill="#FF9F57"/>
    <rect x="0" y="200" width="80" height="20" fill="#C85A3A"/>
  </g>

  <!-- E -->
  <g transform="translate(210, 50)">
    <path d="M 100 0 L 0 0 L 0 400 L 100 400 L 100 380 L 20 380 L 20 220 L 90 220 L 90 200 L 20 200 L 20 20 L 100 20 Z" fill="#FFB84D"/>
    <rect x="0" y="180" width="90" height="40" fill="#FF6B57"/>
    <rect x="60" y="0" width="40" height="60" fill="#C85A3A"/>
  </g>

  <!-- E -->
  <g transform="translate(380, 50)">
    <path d="M 100 0 L 0 0 L 0 400 L 100 400 L 100 380 L 20 380 L 20 220 L 90 220 L 90 200 L 20 200 L 20 20 L 100 20 Z" fill="#FF9F57"/>
    <rect x="0" y="180" width="90" height="40" fill="#FF6B57"/>
    <rect x="60" y="0" width="40" height="60" fill="#C85A3A"/>
  </g>

  <!-- P -->
  <g transform="translate(550, 50)">
    <path d="M 0 0 L 0 400 L -20 400 L -20 0 Q -20 -20 0 -20 L 80 -20 Q 120 -20 120 20 L 120 120 Q 120 160 80 160 L 0 160 Z" fill="#FF5A4A"/>
    <path d="M 0 0 Q 0 -20 20 -20 L 80 -20 Q 100 -20 100 0 L 100 140 Q 100 160 80 160 L 0 160 Z" fill="#FFB84D" opacity="0.7"/>
    <rect x="0" y="0" width="80" height="60" fill="#FF9F57"/>
  </g>

  <!-- Text -->
  <text x="400" y="480" font-size="48" font-weight="bold" text-anchor="middle" fill="#C85A3A" font-family="Arial, sans-serif">
    FEEP
  </text>
</svg>